<?xml version="1.0" encoding="UTF-8"?>
<svg width="16px" height="16px" viewBox="0 0 16 16" version="1.1" xmlns="http://www.w3.org/2000/svg" xmlns:xlink="http://www.w3.org/1999/xlink">
    <title>mine_fill</title>
    <g id="页面-1" stroke="none" stroke-width="1" fill="none" fill-rule="evenodd">
        <g id="mine_fill" fill="#888889" fill-rule="nonzero">
            <path d="M8,14.6666666 C6.33524667,14.6659821 4.73159869,14.0394195 3.50733334,12.9113334 C4.65133334,12.5413334 6.56266666,12 7.95733334,12 C9.37533336,12 11.3333334,12.562 12.47,12.9313334 C11.2486822,14.0471974 9.6543184,14.6661577 8,14.6666666 Z M4.66666666,7.90266666 L4.66666666,6.00133334 C4.6685027,4.16092926 6.1595968,2.66923871 8,2.66666666 C9.838,2.66666666 11.3333334,4.16266666 11.3333334,6.00133334 L11.3333334,7.98266666 C11.3333334,8.196 11.3086666,8.40333336 11.2706666,8.60533336 L11.2513334,8.70066664 C11.1639442,9.0962096 11.0048775,9.47241128 10.782,9.81066664 L10.7406666,9.872 C10.5087868,10.2052276 10.2191028,10.4942342 9.88533336,10.7253334 L9.84333336,10.754 C9.29771616,11.1185409 8.65619208,11.3129702 8,11.3126693 C7.34232523,11.3132478 6.69931912,11.118327 6.15266666,10.7526666 L6.11533334,10.7266666 C5.78066192,10.4956642 5.49045079,10.2061306 5.25866666,9.872 L5.216,9.80866664 C4.99403615,9.47088064 4.83565779,9.0953816 4.74866666,8.70066664 L4.72933334,8.60466664 C4.68911398,8.39973816 4.66813387,8.19149944 4.66666666,7.98266666 L4.66666666,7.90266666 Z M8,0 C3.58866666,0 0,3.58866666 0,8 C0,12.4113334 3.58866666,16 8,16 C12.4113334,16 16,12.4113334 16,8 C16,3.58866666 12.4113334,0 8,0 Z" id="形状"></path>
        </g>
    </g>
</svg>